<?xml version="1.0" encoding="iso-8859-1"?>
<!-- Generator: Adobe Illustrator 16.0.0, SVG Export Plug-In . SVG Version: 6.00 Build 0)  -->
<!DOCTYPE svg PUBLIC "-//W3C//DTD SVG 1.1//EN" "http://www.w3.org/Graphics/SVG/1.1/DTD/svg11.dtd">
<svg version="1.1" id="Capa_1" xmlns="http://www.w3.org/2000/svg" xmlns:xlink="http://www.w3.org/1999/xlink" x="0px" y="0px"
	 width="385.224px" height="385.224px" viewBox="0 0 385.224 385.224" style="enable-background:new 0 0 385.224 385.224;"
	 xml:space="preserve">
<g>
	<path d="M382.011,183.574c-4.284,0-8.567,0-12.852,0c0,0,0,0,0.612,0c3.672-2.448,7.344-4.284,8.567-8.568
		c0.612-1.836-0.612-4.896-3.06-5.508c-4.896-0.612-7.345,1.224-11.017,3.672c-4.284,2.448-8.567,5.508-12.852,7.956
		c-0.612,0.612-1.224,1.224-1.836,1.836c-3.672,0-7.344,0-11.017,0c4.284-3.06,8.568-4.896,11.017-9.18
		c1.836-3.06-0.612-6.732-4.284-6.732c-7.344-0.612-18.972,9.18-22.032,15.912l0,0c-7.956,0-16.523,0-24.479,0.612
		c0-0.612,0.611-0.612,0.611-1.224c0.612-0.612,1.225-0.612,1.225-1.836c8.567-20.808,11.016-51.408-16.524-58.752
		c-19.584-4.896-39.78,9.792-45.899,28.152c-6.732-10.404-19.584-15.3-31.824-10.404c-3.061-4.896-7.344-9.18-13.464-11.628
		c-16.524-7.956-36.108-3.06-49.572,9.18c-5.508,4.896-11.016,13.464-14.076,22.032c-6.12-11.628-16.524-21.42-29.376-23.868
		c-15.912-3.06-29.988,4.284-35.496,19.584c-3.06,8.568-3.672,17.748-1.836,26.316c-9.792,0-18.972,0.612-28.152,1.224
		c0-3.672,0-6.732,0-10.404c0-4.896-4.896-7.344-9.18-5.508c-8.568,4.284-16.524,10.404-23.256,17.136
		c-3.06,3.06-2.448,8.568,1.224,10.404c6.12,3.06,12.24,6.12,18.36,8.568c1.836,1.224,4.284,0.611,6.12,0l0,0
		c1.224,3.06,5.508,2.447,5.508-0.612c0.612-3.672,0.612-7.344,0.612-11.017c10.404,0.612,21.42,1.224,32.436,1.224
		c11.016,26.928,39.78,49.573,63.036,58.14c1.836,0.612,3.06-0.611,3.672-1.836c1.836,1.225,4.284,1.836,6.12,0
		c15.3-14.075,28.764-31.212,41.616-47.735c0.612-0.612,0.612-0.612,1.224-1.225c7.344,12.24,14.688,23.868,23.255,35.496
		c7.345,9.792,14.688,20.809,24.48,28.764c1.836,1.225,3.06,0.612,4.284-0.611c1.224,0.611,3.06,0.611,4.284-1.225
		c19.584-18.359,42.228-42.84,55.691-69.156c10.404-0.612,21.42-1.225,31.824-1.836c0,0,0,0,0.612,0.612
		c4.896,4.897,9.792,9.181,15.3,13.464c3.672,3.061,9.18-1.836,5.508-5.508c-2.448-3.06-4.896-5.508-7.956-8.568
		c0,0-0.612,0-0.612-0.612c4.284,0,8.568-0.612,12.24-0.612c7.956,6.12,16.524,11.017,26.316,14.076
		c4.284,1.224,6.731-4.896,3.06-6.731c-3.672-2.448-7.344-4.897-11.016-7.345c4.284,0,8.567,0,12.852,0
		C386.295,190.917,386.295,183.574,382.011,183.574z M132.315,243.55c-0.612,0.612-0.612,1.224-0.612,1.836
		c-18.36-16.524-39.168-28.764-50.796-51.408c0,0,0-0.612-0.612-0.612c9.18,0,18.36-1.224,26.928-3.06c3.06-0.612,3.06-5.508,0-6.12
		c-10.404-2.448-20.808-3.06-31.212-3.06c-4.284-15.912-3.672-35.496,17.748-36.72c20.808-1.836,28.764,20.808,36.72,35.496
		c0.612,1.224,1.224,1.224,1.836,1.224c1.224,0.612,3.06,0.612,3.672,0c2.448-1.836,3.06-2.448,3.06-4.896
		c0-1.224-0.612-1.836-0.612-1.836c0.612-1.224,1.224-2.448,0.612-4.896c0.612-5.508,1.836-10.404,4.896-15.3
		c3.672-6.12,9.792-12.24,15.3-15.3c8.568-4.896,31.212-9.18,37.944,2.448c7.344,13.464-1.837,26.316-9.792,36.108
		C169.035,198.262,147.615,219.07,132.315,243.55z M295.719,170.722c-3.06,4.284-6.12,8.568-9.18,12.852
		c-11.628,0.612-23.868,1.224-35.496,3.06c-5.508,0.612-6.12,9.18,0,9.18c9.792,0,18.972-0.611,28.764-0.611
		c-3.06,4.896-6.119,10.403-9.792,15.3c-11.628,16.523-24.479,31.212-37.332,45.899c-6.119-9.792-15.3-18.972-22.644-28.151
		c-7.956-11.017-15.912-21.42-23.868-32.437c7.344-8.568,15.3-17.749,19.584-27.541c2.448-5.508,3.672-11.628,3.061-16.524l0,0
		c9.792-3.06,22.031,0,26.928,9.18c0,3.06,4.896,4.284,6.12,1.224c8.567-14.076,17.748-33.66,37.943-29.376
		C300.003,135.838,298.779,155.422,295.719,170.722z"/>
</g>
<g>
</g>
<g>
</g>
<g>
</g>
<g>
</g>
<g>
</g>
<g>
</g>
<g>
</g>
<g>
</g>
<g>
</g>
<g>
</g>
<g>
</g>
<g>
</g>
<g>
</g>
<g>
</g>
<g>
</g>
</svg>
